liga_ltr.ufo
<glyph name="a" format="2">
	<unicode hex="0061"/>
	<advance width="567"/>
	<outline>
		<contour>
			<point x="201" y="-13" type="curve" smooth="yes"/>
			<point x="288" y="-13"/>
			<point x="338" y="37"/>
			<point x="369" y="92" type="curve"/>
			<point x="388" y="92" type="line"/>
			<point x="393" y="18"/>
			<point x="428" y="-11"/>
			<point x="480" y="-11" type="curve" smooth="yes"/>
			<point x="515" y="-11"/>
			<point x="538" y="4"/>
			<point x="552" y="14" type="curve"/>
			<point x="542" y="45" type="line"/>
			<point x="534" y="41"/>
			<point x="518" y="33"/>
			<point x="498" y="33" type="curve" smooth="yes"/>
			<point x="463" y="33"/>
			<point x="440" y="51"/>
			<point x="440" y="108" type="curve" smooth="yes"/>
			<point x="440" y="348" type="line" smooth="yes"/>
			<point x="440" y="463"/>
			<point x="372" y="515"/>
			<point x="266" y="515" type="curve" smooth="yes"/>
			<point x="157" y="515"/>
			<point x="86" y="467"/>
			<point x="65" y="379" type="curve"/>
			<point x="68" y="363"/>
			<point x="79" y="348"/>
			<point x="101" y="348" type="curve" smooth="yes"/>
			<point x="123" y="348"/>
			<point x="137" y="361"/>
			<point x="141" y="388" type="curve" smooth="yes"/>
			<point x="155" y="459" type="line"/>
			<point x="181" y="470"/>
			<point x="212" y="477"/>
			<point x="253" y="477" type="curve" smooth="yes"/>
			<point x="342" y="477"/>
			<point x="384" y="436"/>
			<point x="384" y="340" type="curve" smooth="yes"/>
			<point x="384" y="325" type="line"/>
			<point x="324" y="308"/>
			<point x="263" y="291"/>
			<point x="203" y="275" type="curve" smooth="yes"/>
			<point x="107" y="248"/>
			<point x="53" y="205"/>
			<point x="53" y="121" type="curve" smooth="yes"/>
			<point x="53" y="37"/>
			<point x="115" y="-13"/>
		</contour>
		<contour>
			<point x="109" y="129" type="curve" smooth="yes"/>
			<point x="109" y="189"/>
			<point x="145" y="222"/>
			<point x="220" y="244" type="curve" smooth="yes"/>
			<point x="274" y="259"/>
			<point x="329" y="276"/>
			<point x="384" y="292" type="curve"/>
			<point x="384" y="128" type="line"/>
			<point x="333" y="74"/>
			<point x="288" y="31"/>
			<point x="221" y="31" type="curve" smooth="yes"/>
			<point x="148" y="31"/>
			<point x="109" y="69"/>
		</contour>
	</outline>
	<anchor name="aboveLC" x="267" y="523"/>
	<anchor name="belowLC" x="282" y="-20"/>
	<anchor name="ogonek" x="491" y="0"/>
</glyph>
<glyph name="b" format="2">
	<unicode hex="0062"/>
	<advance width="655"/>
	<outline>
		<contour>
			<point x="43" y="0" type="line"/>
			<point x="193" y="-3" type="line"/>
			<point x="196" y="91" type="line"/>
			<point x="215" y="91" type="line"/>
			<point x="250" y="33"/>
			<point x="292" y="-12"/>
			<point x="377" y="-12" type="curve" smooth="yes"/>
			<point x="502" y="-12"/>
			<point x="597" y="83"/>
			<point x="597" y="253" type="curve" smooth="yes"/>
			<point x="597" y="424"/>
			<point x="502" y="515"/>
			<point x="377" y="515" type="curve" smooth="yes"/>
			<point x="292" y="515"/>
			<point x="250" y="469"/>
			<point x="215" y="411" type="curve"/>
			<point x="197" y="411" type="line"/>
			<point x="200" y="621" type="line"/>
			<point x="200" y="735" type="line"/>
			<point x="175" y="735" type="line"/>
			<point x="37" y="719" type="line"/>
			<point x="37" y="686" type="line"/>
			<point x="145" y="676" type="line"/>
			<point x="145" y="45" type="line"/>
			<point x="43" y="37" type="line"/>
		</contour>
		<contour>
			<point x="363" y="471" type="curve" smooth="yes"/>
			<point x="466" y="471"/>
			<point x="538" y="399"/>
			<point x="538" y="251" type="curve" smooth="yes"/>
			<point x="538" y="102"/>
			<point x="466" y="31"/>
			<point x="363" y="31" type="curve" smooth="yes"/>
			<point x="294" y="31"/>
			<point x="249" y="66"/>
			<point x="200" y="130" type="curve"/>
			<point x="200" y="371" type="line"/>
			<point x="249" y="436"/>
			<point x="294" y="471"/>
		</contour>
	</outline>
	<anchor name="aboveUC" x="170" y="745"/>
	<anchor name="belowLC" x="363" y="-20"/>
</glyph>
<glyph name="d" format="2">
	<unicode hex="0064"/>
	<advance width="655"/>
	<outline>
		<contour>
			<point x="278" y="-12" type="curve" smooth="yes"/>
			<point x="363" y="-12"/>
			<point x="405" y="33"/>
			<point x="440" y="92" type="curve"/>
			<point x="458" y="92" type="line"/>
			<point x="462" y="-3" type="line"/>
			<point x="612" y="0" type="line"/>
			<point x="612" y="37" type="line"/>
			<point x="510" y="45" type="line"/>
			<point x="510" y="735" type="line"/>
			<point x="485" y="735" type="line"/>
			<point x="348" y="719" type="line"/>
			<point x="348" y="686" type="line"/>
			<point x="455" y="676" type="line"/>
			<point x="458" y="412" type="line"/>
			<point x="440" y="412" type="line"/>
			<point x="405" y="469"/>
			<point x="363" y="515"/>
			<point x="278" y="515" type="curve" smooth="yes"/>
			<point x="153" y="515"/>
			<point x="58" y="420"/>
			<point x="58" y="249" type="curve" smooth="yes"/>
			<point x="58" y="79"/>
			<point x="153" y="-12"/>
		</contour>
		<contour>
			<point x="117" y="252" type="curve" smooth="yes"/>
			<point x="117" y="401"/>
			<point x="189" y="472"/>
			<point x="292" y="472" type="curve" smooth="yes"/>
			<point x="361" y="472"/>
			<point x="406" y="437"/>
			<point x="455" y="373" type="curve"/>
			<point x="455" y="132" type="line"/>
			<point x="406" y="67"/>
			<point x="361" y="32"/>
			<point x="292" y="32" type="curve" smooth="yes"/>
			<point x="189" y="32"/>
			<point x="117" y="104"/>
		</contour>
	</outline>
	<anchor name="aboveUC" x="469" y="745"/>
	<anchor name="belowLC" x="313" y="-20"/>
</glyph>
<glyph name="f" format="2">
	<unicode hex="0066"/>
	<advance width="368"/>
	<outline>
		<contour>
			<point x="43" y="0" type="line"/>
			<point x="316" y="0" type="line"/>
			<point x="316" y="40" type="line"/>
			<point x="199" y="40" type="line"/>
			<point x="199" y="462" type="line"/>
			<point x="338" y="462" type="line"/>
			<point x="338" y="503" type="line"/>
			<point x="199" y="503" type="line"/>
			<point x="200" y="582"/>
			<point x="213" y="626"/>
			<point x="242" y="670" type="curve" smooth="yes"/>
			<point x="256" y="693"/>
			<point x="274" y="707"/>
			<point x="294" y="717" type="curve"/>
			<point x="320" y="717" type="line"/>
			<point x="333" y="707" type="line" smooth="yes"/>
			<point x="362" y="685"/>
			<point x="379" y="672"/>
			<point x="406" y="672" type="curve" smooth="yes"/>
			<point x="432" y="672"/>
			<point x="444" y="688"/>
			<point x="446" y="704" type="curve"/>
			<point x="436" y="730"/>
			<point x="402" y="747"/>
			<point x="349" y="747" type="curve" smooth="yes"/>
			<point x="305" y="747"/>
			<point x="260" y="733"/>
			<point x="223" y="699" type="curve" smooth="yes"/>
			<point x="183" y="662"/>
			<point x="148" y="612"/>
			<point x="145" y="503" type="curve"/>
			<point x="42" y="495" type="line"/>
			<point x="42" y="462" type="line"/>
			<point x="143" y="462" type="line"/>
			<point x="143" y="40" type="line"/>
			<point x="43" y="40" type="line"/>
		</contour>
	</outline>
	<anchor name="aboveUC" x="320" y="745"/>
	<anchor name="belowLC" x="172" y="-20"/>
</glyph>
<glyph name="g" format="2">
	<unicode hex="0067"/>
	<advance width="573"/>
	<outline>
		<contour>
			<point x="254" y="171" type="curve" smooth="yes"/>
			<point x="365" y="171"/>
			<point x="446" y="248"/>
			<point x="446" y="345" type="curve" smooth="yes"/>
			<point x="446" y="386"/>
			<point x="432" y="421"/>
			<point x="406" y="449" type="curve"/>
			<point x="532" y="449" type="line"/>
			<point x="532" y="510" type="line"/>
			<point x="499" y="510" type="line"/>
			<point x="404" y="471" type="line"/>
			<point x="379" y="471" type="line"/>
			<point x="353" y="496"/>
			<point x="312" y="515"/>
			<point x="254" y="515" type="curve" smooth="yes"/>
			<point x="140" y="515"/>
			<point x="61" y="438"/>
			<point x="61" y="341" type="curve" smooth="yes"/>
			<point x="61" y="281"/>
			<point x="91" y="230"/>
			<point x="141" y="200" type="curve"/>
			<point x="141" y="184" type="line"/>
			<point x="102" y="171"/>
			<point x="65" y="148"/>
			<point x="65" y="100" type="curve" smooth="yes"/>
			<point x="65" y="55"/>
			<point x="101" y="33"/>
			<point x="141" y="23" type="curve"/>
			<point x="141" y="8" type="line"/>
			<point x="78" y="-14"/>
			<point x="40" y="-46"/>
			<point x="40" y="-106" type="curve" smooth="yes"/>
			<point x="40" y="-187"/>
			<point x="124" y="-245"/>
			<point x="265" y="-245" type="curve" smooth="yes"/>
			<point x="407" y="-245"/>
			<point x="520" y="-168"/>
			<point x="520" y="-70" type="curve" smooth="yes"/>
			<point x="520" y="0"/>
			<point x="467" y="50"/>
			<point x="365" y="50" type="curve" smooth="yes"/>
			<point x="218" y="50" type="line" smooth="yes"/>
			<point x="145" y="50"/>
			<point x="118" y="77"/>
			<point x="118" y="112" type="curve" smooth="yes"/>
			<point x="118" y="141"/>
			<point x="133" y="161"/>
			<point x="166" y="187" type="curve"/>
			<point x="192" y="177"/>
			<point x="222" y="171"/>
		</contour>
		<contour>
			<point x="254" y="209" type="curve" smooth="yes"/>
			<point x="171" y="209"/>
			<point x="117" y="266"/>
			<point x="117" y="343" type="curve" smooth="yes"/>
			<point x="117" y="420"/>
			<point x="171" y="477"/>
			<point x="254" y="477" type="curve" smooth="yes"/>
			<point x="337" y="477"/>
			<point x="391" y="420"/>
			<point x="391" y="343" type="curve" smooth="yes"/>
			<point x="391" y="266"/>
			<point x="337" y="209"/>
		</contour>
		<contour>
			<point x="95" y="-99" type="curve" smooth="yes"/>
			<point x="95" y="-50"/>
			<point x="121" y="-18"/>
			<point x="168" y="3" type="curve"/>
			<point x="357" y="3" type="line" smooth="yes"/>
			<point x="434" y="3"/>
			<point x="466" y="-28"/>
			<point x="466" y="-78" type="curve" smooth="yes"/>
			<point x="466" y="-146"/>
			<point x="388" y="-207"/>
			<point x="268" y="-207" type="curve" smooth="yes"/>
			<point x="147" y="-207"/>
			<point x="95" y="-159"/>
		</contour>
	</outline>
	<anchor name="aboveLC" x="267" y="523"/>
	<anchor name="belowLC" x="275" y="-254"/>
</glyph>
<glyph name="h" format="2">
	<unicode hex="0068"/>
	<advance width="675"/>
	<outline>
		<contour>
			<point x="45" y="0" type="line"/>
			<point x="299" y="0" type="line"/>
			<point x="299" y="40" type="line"/>
			<point x="200" y="40" type="line"/>
			<point x="200" y="381" type="line"/>
			<point x="264" y="434"/>
			<point x="318" y="466"/>
			<point x="384" y="466" type="curve" smooth="yes"/>
			<point x="458" y="466"/>
			<point x="499" y="427"/>
			<point x="499" y="338" type="curve" smooth="yes"/>
			<point x="499" y="40" type="line"/>
			<point x="401" y="40" type="line"/>
			<point x="401" y="0" type="line"/>
			<point x="653" y="0" type="line"/>
			<point x="653" y="40" type="line"/>
			<point x="554" y="40" type="line"/>
			<point x="554" y="352" type="line" smooth="yes"/>
			<point x="554" y="457"/>
			<point x="495" y="515"/>
			<point x="398" y="515" type="curve" smooth="yes"/>
			<point x="316" y="515"/>
			<point x="263" y="472"/>
			<point x="218" y="411" type="curve"/>
			<point x="198" y="411" type="line"/>
			<point x="200" y="621" type="line"/>
			<point x="200" y="735" type="line"/>
			<point x="175" y="735" type="line"/>
			<point x="37" y="719" type="line"/>
			<point x="37" y="686" type="line"/>
			<point x="145" y="676" type="line"/>
			<point x="145" y="40" type="line"/>
			<point x="45" y="40" type="line"/>
		</contour>
	</outline>
	<anchor name="aboveUC" x="167" y="745"/>
	<anchor name="belowLC" x="347" y="-20"/>
</glyph>
<glyph name="i" format="2">
	<unicode hex="0069"/>
	<advance width="345"/>
	<outline>
		<contour>
			<point x="172" y="635" type="curve" smooth="yes"/>
			<point x="201" y="635"/>
			<point x="221" y="655"/>
			<point x="221" y="682" type="curve" smooth="yes"/>
			<point x="221" y="710"/>
			<point x="201" y="730"/>
			<point x="172" y="730" type="curve" smooth="yes"/>
			<point x="144" y="730"/>
			<point x="123" y="710"/>
			<point x="123" y="682" type="curve" smooth="yes"/>
			<point x="123" y="655"/>
			<point x="144" y="635"/>
		</contour>
		<contour>
			<point x="45" y="0" type="line"/>
			<point x="299" y="0" type="line"/>
			<point x="299" y="40" type="line"/>
			<point x="200" y="40" type="line"/>
			<point x="200" y="503" type="line"/>
			<point x="175" y="503" type="line"/>
			<point x="41" y="478" type="line"/>
			<point x="41" y="444" type="line"/>
			<point x="145" y="444" type="line"/>
			<point x="145" y="40" type="line"/>
			<point x="45" y="40" type="line"/>
		</contour>
	</outline>
	<anchor name="aboveUC" x="172" y="730"/>
	<anchor name="belowLC" x="179" y="-20"/>
	<anchor name="ogonek" x="194" y="0"/>
</glyph>
<glyph name="k" format="2">
	<unicode hex="006B"/>
	<advance width="627"/>
	<outline>
		<contour>
			<point x="45" y="0" type="line"/>
			<point x="299" y="0" type="line"/>
			<point x="299" y="40" type="line"/>
			<point x="200" y="40" type="line"/>
			<point x="200" y="202" type="line"/>
			<point x="295" y="288" type="line"/>
			<point x="472" y="0" type="line"/>
			<point x="605" y="0" type="line"/>
			<point x="605" y="38" type="line"/>
			<point x="513" y="42" type="line"/>
			<point x="334" y="323" type="line"/>
			<point x="487" y="461" type="line"/>
			<point x="584" y="466" type="line"/>
			<point x="584" y="503" type="line"/>
			<point x="335" y="503" type="line"/>
			<point x="335" y="466" type="line"/>
			<point x="430" y="461" type="line"/>
			<point x="322" y="359" type="line"/>
			<point x="212" y="240" type="line"/>
			<point x="200" y="240" type="line"/>
			<point x="200" y="735" type="line"/>
			<point x="175" y="735" type="line"/>
			<point x="37" y="719" type="line"/>
			<point x="37" y="686" type="line"/>
			<point x="145" y="676" type="line"/>
			<point x="145" y="40" type="line"/>
			<point x="45" y="40" type="line"/>
		</contour>
	</outline>
	<anchor name="aboveUC" x="169" y="745"/>
	<anchor name="belowLC" x="332" y="-20"/>
</glyph>
<glyph name="l" format="2">
	<unicode hex="006C"/>
	<advance width="345"/>
	<outline>
		<contour>
			<point x="45" y="0" type="line"/>
			<point x="299" y="0" type="line"/>
			<point x="299" y="40" type="line"/>
			<point x="200" y="40" type="line"/>
			<point x="200" y="735" type="line"/>
			<point x="175" y="735" type="line"/>
			<point x="37" y="719" type="line"/>
			<point x="37" y="686" type="line"/>
			<point x="145" y="676" type="line"/>
			<point x="145" y="40" type="line"/>
			<point x="45" y="40" type="line"/>
		</contour>
	</outline>
	<anchor name="aboveUC" x="170" y="745"/>
	<anchor name="belowLC" x="169" y="-20"/>
</glyph>
<glyph name="m" format="2">
	<unicode hex="006D"/>
	<advance width="1003"/>
	<outline>
		<contour>
			<point x="44" y="0" type="line"/>
			<point x="296" y="0" type="line"/>
			<point x="296" y="40" type="line"/>
			<point x="199" y="40" type="line"/>
			<point x="199" y="381" type="line"/>
			<point x="262" y="434"/>
			<point x="313" y="466"/>
			<point x="376" y="466" type="curve" smooth="yes"/>
			<point x="447" y="466"/>
			<point x="484" y="427"/>
			<point x="484" y="341" type="curve" smooth="yes"/>
			<point x="484" y="40" type="line"/>
			<point x="387" y="40" type="line"/>
			<point x="387" y="0" type="line"/>
			<point x="639" y="0" type="line"/>
			<point x="639" y="40" type="line"/>
			<point x="540" y="40" type="line"/>
			<point x="540" y="355" type="line" smooth="yes"/>
			<point x="540" y="364"/>
			<point x="540" y="372"/>
			<point x="539" y="380" type="curve"/>
			<point x="603" y="433"/>
			<point x="654" y="466"/>
			<point x="717" y="466" type="curve" smooth="yes"/>
			<point x="788" y="466"/>
			<point x="825" y="427"/>
			<point x="825" y="341" type="curve" smooth="yes"/>
			<point x="825" y="40" type="line"/>
			<point x="728" y="40" type="line"/>
			<point x="728" y="0" type="line"/>
			<point x="980" y="0" type="line"/>
			<point x="980" y="40" type="line"/>
			<point x="881" y="40" type="line"/>
			<point x="881" y="355" type="line" smooth="yes"/>
			<point x="881" y="457"/>
			<point x="825" y="515"/>
			<point x="731" y="515" type="curve" smooth="yes"/>
			<point x="652" y="515"/>
			<point x="601" y="472"/>
			<point x="554" y="411" type="curve"/>
			<point x="533" y="411" type="line"/>
			<point x="516" y="478"/>
			<point x="464" y="515"/>
			<point x="390" y="515" type="curve" smooth="yes"/>
			<point x="311" y="515"/>
			<point x="260" y="472"/>
			<point x="213" y="411" type="curve"/>
			<point x="193" y="411" type="line"/>
			<point x="185" y="503" type="line"/>
			<point x="160" y="503" type="line"/>
			<point x="40" y="478" type="line"/>
			<point x="40" y="444" type="line"/>
			<point x="143" y="444" type="line"/>
			<point x="143" y="40" type="line"/>
			<point x="44" y="40" type="line"/>
		</contour>
	</outline>
	<anchor name="aboveLC" x="515" y="523"/>
	<anchor name="belowLC" x="516" y="-20"/>
</glyph>
<glyph name="n" format="2">
	<unicode hex="006E"/>
	<advance width="675"/>
	<outline>
		<contour>
			<point x="44" y="0" type="line"/>
			<point x="296" y="0" type="line"/>
			<point x="296" y="40" type="line"/>
			<point x="199" y="40" type="line"/>
			<point x="199" y="381" type="line"/>
			<point x="263" y="434"/>
			<point x="316" y="466"/>
			<point x="383" y="466" type="curve" smooth="yes"/>
			<point x="457" y="466"/>
			<point x="497" y="427"/>
			<point x="497" y="338" type="curve" smooth="yes"/>
			<point x="497" y="40" type="line"/>
			<point x="400" y="40" type="line"/>
			<point x="400" y="0" type="line"/>
			<point x="652" y="0" type="line"/>
			<point x="652" y="40" type="line"/>
			<point x="553" y="40" type="line"/>
			<point x="553" y="352" type="line" smooth="yes"/>
			<point x="553" y="457"/>
			<point x="493" y="515"/>
			<point x="397" y="515" type="curve" smooth="yes"/>
			<point x="314" y="515"/>
			<point x="260" y="472"/>
			<point x="213" y="411" type="curve"/>
			<point x="193" y="411" type="line"/>
			<point x="185" y="503" type="line"/>
			<point x="160" y="503" type="line"/>
			<point x="40" y="478" type="line"/>
			<point x="40" y="444" type="line"/>
			<point x="143" y="444" type="line"/>
			<point x="143" y="40" type="line"/>
			<point x="44" y="40" type="line"/>
		</contour>
	</outline>
	<anchor name="aboveLC" x="352" y="523"/>
	<anchor name="belowLC" x="352" y="-20"/>
</glyph>
<glyph name="p" format="2">
	<unicode hex="0070"/>
	<advance width="652"/>
	<outline>
		<contour>
			<point x="43" y="-234" type="line"/>
			<point x="311" y="-234" type="line"/>
			<point x="311" y="-195" type="line"/>
			<point x="198" y="-195" type="line"/>
			<point x="198" y="-20" type="line" smooth="yes"/>
			<point x="193" y="91" type="line"/>
			<point x="213" y="91" type="line"/>
			<point x="247" y="33"/>
			<point x="289" y="-12"/>
			<point x="375" y="-12" type="curve" smooth="yes"/>
			<point x="500" y="-12"/>
			<point x="594" y="83"/>
			<point x="594" y="253" type="curve" smooth="yes"/>
			<point x="594" y="424"/>
			<point x="500" y="515"/>
			<point x="375" y="515" type="curve" smooth="yes"/>
			<point x="289" y="515"/>
			<point x="247" y="469"/>
			<point x="212" y="410" type="curve"/>
			<point x="191" y="410" type="line"/>
			<point x="184" y="503" type="line"/>
			<point x="159" y="503" type="line"/>
			<point x="39" y="478" type="line"/>
			<point x="39" y="444" type="line"/>
			<point x="142" y="444" type="line"/>
			<point x="142" y="-195" type="line"/>
			<point x="43" y="-195" type="line"/>
		</contour>
		<contour>
			<point x="360" y="471" type="curve" smooth="yes"/>
			<point x="463" y="471"/>
			<point x="535" y="399"/>
			<point x="535" y="251" type="curve" smooth="yes"/>
			<point x="535" y="102"/>
			<point x="463" y="31"/>
			<point x="360" y="31" type="curve" smooth="yes"/>
			<point x="291" y="31"/>
			<point x="247" y="66"/>
			<point x="198" y="130" type="curve"/>
			<point x="198" y="371" type="line"/>
			<point x="247" y="436"/>
			<point x="291" y="471"/>
		</contour>
	</outline>
	<anchor name="aboveLC" x="354" y="523"/>
	<anchor name="belowLC" x="169" y="-254"/>
</glyph>
<glyph name="r" format="2">
	<unicode hex="0072"/>
	<advance width="483"/>
	<outline>
		<contour>
			<point x="45" y="0" type="line"/>
			<point x="330" y="0" type="line"/>
			<point x="330" y="40" type="line"/>
			<point x="200" y="40" type="line"/>
			<point x="200" y="336" type="line"/>
			<point x="238" y="393"/>
			<point x="283" y="437"/>
			<point x="338" y="459" type="curve"/>
			<point x="343" y="454" type="line" smooth="yes"/>
			<point x="359" y="439"/>
			<point x="375" y="427"/>
			<point x="402" y="427" type="curve" smooth="yes"/>
			<point x="436" y="427"/>
			<point x="453" y="451"/>
			<point x="455" y="473" type="curve"/>
			<point x="447" y="492"/>
			<point x="423" y="511"/>
			<point x="375" y="511" type="curve" smooth="yes"/>
			<point x="303" y="511"/>
			<point x="256" y="457"/>
			<point x="210" y="378" type="curve"/>
			<point x="193" y="378" type="line"/>
			<point x="188" y="503" type="line"/>
			<point x="163" y="503" type="line"/>
			<point x="41" y="478" type="line"/>
			<point x="41" y="444" type="line"/>
			<point x="145" y="444" type="line"/>
			<point x="145" y="40" type="line"/>
			<point x="45" y="40" type="line"/>
		</contour>
	</outline>
	<anchor name="aboveLC" x="273" y="523"/>
	<anchor name="belowLC" x="171" y="-20"/>
</glyph>
<glyph name="t" format="2">
	<unicode hex="0074"/>
	<advance width="384"/>
	<outline>
		<contour>
			<point x="255" y="-11" type="curve" smooth="yes"/>
			<point x="302" y="-11"/>
			<point x="338" y="7"/>
			<point x="357" y="19" type="curve"/>
			<point x="342" y="51" type="line"/>
			<point x="325" y="43"/>
			<point x="299" y="35"/>
			<point x="268" y="35" type="curve" smooth="yes"/>
			<point x="215" y="35"/>
			<point x="188" y="61"/>
			<point x="188" y="125" type="curve" smooth="yes"/>
			<point x="188" y="462" type="line"/>
			<point x="345" y="462" type="line"/>
			<point x="345" y="503" type="line"/>
			<point x="186" y="503" type="line"/>
			<point x="194" y="651" type="line"/>
			<point x="152" y="651" type="line"/>
			<point x="137" y="503" type="line"/>
			<point x="25" y="495" type="line"/>
			<point x="25" y="462" type="line"/>
			<point x="133" y="462" type="line"/>
			<point x="133" y="119" type="line" smooth="yes"/>
			<point x="133" y="31"/>
			<point x="179" y="-11"/>
		</contour>
	</outline>
	<anchor name="aboveLC" x="173" y="632"/>
	<anchor name="baseLC" x="239" y="0"/>
	<anchor name="belowLC" x="245" y="-20"/>
</glyph>
<glyph name="w" format="2">
	<unicode hex="0077"/>
	<advance width="898"/>
	<outline>
		<contour>
			<point x="242" y="0" type="line"/>
			<point x="300" y="0" type="line"/>
			<point x="388" y="244" type="line"/>
			<point x="444" y="439" type="line"/>
			<point x="591" y="0" type="line"/>
			<point x="646" y="0" type="line"/>
			<point x="808" y="461" type="line"/>
			<point x="874" y="466" type="line"/>
			<point x="874" y="503" type="line"/>
			<point x="671" y="503" type="line"/>
			<point x="671" y="466" type="line"/>
			<point x="758" y="461" type="line"/>
			<point x="692" y="254" type="line"/>
			<point x="637" y="38" type="line"/>
			<point x="630" y="38" type="line"/>
			<point x="491" y="464" type="line"/>
			<point x="571" y="466" type="line"/>
			<point x="571" y="503" type="line"/>
			<point x="339" y="503" type="line"/>
			<point x="339" y="466" type="line"/>
			<point x="420" y="464" type="line"/>
			<point x="347" y="255" type="line"/>
			<point x="288" y="38" type="line"/>
			<point x="281" y="38" type="line"/>
			<point x="150" y="461" type="line"/>
			<point x="241" y="466" type="line"/>
			<point x="241" y="503" type="line"/>
			<point x="24" y="503" type="line"/>
			<point x="24" y="466" type="line"/>
			<point x="89" y="461" type="line"/>
		</contour>
	</outline>
	<anchor name="aboveLC" x="467" y="523"/>
	<anchor name="belowLC" x="458" y="-20"/>
</glyph>
<glyph name="x" format="2">
	<unicode hex="0078"/>
	<advance width="602"/>
	<outline>
		<contour>
			<point x="27" y="0" type="line"/>
			<point x="242" y="0" type="line"/>
			<point x="242" y="40" type="line"/>
			<point x="155" y="40" type="line"/>
			<point x="205" y="113" type="line"/>
			<point x="275" y="238" type="line"/>
			<point x="284" y="238" type="line"/>
			<point x="433" y="40" type="line"/>
			<point x="343" y="40" type="line"/>
			<point x="343" y="0" type="line"/>
			<point x="575" y="0" type="line"/>
			<point x="575" y="40" type="line"/>
			<point x="501" y="40" type="line"/>
			<point x="330" y="256" type="line"/>
			<point x="488" y="461" type="line"/>
			<point x="564" y="466" type="line"/>
			<point x="564" y="503" type="line"/>
			<point x="351" y="503" type="line"/>
			<point x="351" y="466" type="line"/>
			<point x="438" y="461" type="line"/>
			<point x="392" y="395" type="line"/>
			<point x="324" y="274" type="line"/>
			<point x="316" y="274" type="line"/>
			<point x="174" y="461" type="line"/>
			<point x="263" y="466" type="line"/>
			<point x="263" y="503" type="line"/>
			<point x="32" y="503" type="line"/>
			<point x="32" y="466" type="line"/>
			<point x="107" y="461" type="line"/>
			<point x="269" y="257" type="line"/>
			<point x="103" y="40" type="line"/>
			<point x="27" y="40" type="line"/>
		</contour>
	</outline>
	<anchor name="aboveLC" x="312" y="523"/>
	<anchor name="belowLC" x="289" y="-20"/>
</glyph>
<glyph name="z" format="2">
	<unicode hex="007A"/>
	<advance width="516"/>
	<outline>
		<contour>
			<point x="44" y="0" type="line"/>
			<point x="462" y="0" type="line"/>
			<point x="470" y="157" type="line"/>
			<point x="430" y="157" type="line"/>
			<point x="410" y="37" type="line"/>
			<point x="263" y="37" type="line"/>
			<point x="109" y="29" type="line"/>
			<point x="109" y="39" type="line"/>
			<point x="452" y="470" type="line"/>
			<point x="452" y="503" type="line"/>
			<point x="57" y="503" type="line"/>
			<point x="49" y="349" type="line"/>
			<point x="89" y="349" type="line"/>
			<point x="110" y="466" type="line"/>
			<point x="244" y="466" type="line"/>
			<point x="386" y="473" type="line"/>
			<point x="386" y="464" type="line"/>
			<point x="44" y="33" type="line"/>
		</contour>
	</outline>
	<anchor name="aboveLC" x="260" y="523"/>
	<anchor name="belowLC" x="257" y="-20"/>
</glyph>
<glyph name="dotlessi" format="2">
	<unicode hex="0131"/>
	<advance width="345"/>
	<outline>
		<contour>
			<point x="45" y="0" type="line"/>
			<point x="299" y="0" type="line"/>
			<point x="299" y="40" type="line"/>
			<point x="200" y="40" type="line"/>
			<point x="200" y="503" type="line"/>
			<point x="175" y="503" type="line"/>
			<point x="41" y="478" type="line"/>
			<point x="41" y="444" type="line"/>
			<point x="145" y="444" type="line"/>
			<point x="145" y="40" type="line"/>
			<point x="45" y="40" type="line"/>
		</contour>
	</outline>
	<anchor name="aboveLC" x="173" y="523"/>
	<anchor name="belowLC" x="177" y="-20"/>
</glyph>
<glyph name=".notdef" format="2">
	<advance width="640"/>
	<outline>
		<contour>
			<point x="80" y="0" type="line"/>
			<point x="560" y="0" type="line"/>
			<point x="560" y="674" type="line"/>
			<point x="80" y="674" type="line"/>
		</contour>
		<contour>
			<point x="140" y="641" type="line"/>
			<point x="500" y="641" type="line"/>
			<point x="320" y="366" type="line"/>
		</contour>
		<contour>
			<point x="118" y="616" type="line"/>
			<point x="301" y="337" type="line"/>
			<point x="118" y="58" type="line"/>
		</contour>
		<contour>
			<point x="339" y="337" type="line"/>
			<point x="522" y="616" type="line"/>
			<point x="522" y="58" type="line"/>
		</contour>
		<contour>
			<point x="139" y="32" type="line"/>
			<point x="320" y="308" type="line"/>
			<point x="501" y="32" type="line"/>
		</contour>
	</outline>
</glyph>
<glyph name="dotlessi.liga" format="2">
	<advance width="345"/>
	<outline>
		<contour>
			<point x="45" y="0" type="line"/>
			<point x="299" y="0" type="line"/>
			<point x="299" y="40" type="line"/>
			<point x="200" y="40" type="line"/>
			<point x="200" y="503" type="line"/>
			<point x="-158" y="503" type="line"/>
			<point x="-158" y="462" type="line"/>
			<point x="145" y="462" type="line"/>
			<point x="145" y="40" type="line"/>
			<point x="45" y="40" type="line"/>
		</contour>
	</outline>
</glyph>
<glyph name="f.liga" format="2">
	<advance width="334"/>
	<outline>
		<contour>
			<point x="44" y="0" type="line"/>
			<point x="296" y="0" type="line"/>
			<point x="296" y="40" type="line"/>
			<point x="199" y="40" type="line"/>
			<point x="199" y="493" type="line"/>
			<point x="199" y="607"/>
			<point x="227" y="683"/>
			<point x="301" y="717" type="curve"/>
			<point x="330" y="717" type="line"/>
			<point x="348" y="701" type="line" smooth="yes"/>
			<point x="375" y="678"/>
			<point x="394" y="667"/>
			<point x="420" y="667" type="curve" smooth="yes"/>
			<point x="447" y="667"/>
			<point x="461" y="682"/>
			<point x="462" y="703" type="curve"/>
			<point x="449" y="733"/>
			<point x="411" y="747"/>
			<point x="343" y="747" type="curve" smooth="yes"/>
			<point x="240" y="747"/>
			<point x="152" y="673"/>
			<point x="145" y="503" type="curve"/>
			<point x="42" y="495" type="line"/>
			<point x="42" y="462" type="line"/>
			<point x="143" y="462" type="line"/>
			<point x="143" y="40" type="line"/>
			<point x="44" y="40" type="line"/>
		</contour>
	</outline>
</glyph>
